<svg width="500" height="500" viewBox="0 0 500 500" fill="none" xmlns="http://www.w3.org/2000/svg">
<path d="M355.208 422.5C334.791 442.292 312.5 439.167 291.041 429.792C268.333 420.208 247.5 419.792 223.541 429.792C193.541 442.708 177.708 438.958 159.791 422.5C58.1247 317.708 73.1247 158.125 188.541 152.292C216.666 153.75 236.25 167.708 252.708 168.958C277.291 163.958 300.833 149.583 327.083 151.458C358.541 153.958 382.291 166.458 397.916 188.958C332.916 227.917 348.333 313.542 407.916 337.5C396.041 368.75 380.625 399.792 355 422.708L355.208 422.5ZM250.625 151.042C247.5 104.583 285.208 66.25 328.541 62.5C334.583 116.25 279.791 156.25 250.625 151.042Z" fill="#354DAE"/>
</svg>
