<svg width="77" height="13" viewBox="0 0 77 13" fill="none" xmlns="http://www.w3.org/2000/svg">
<g clip-path="url(#clip0_2910_21383)">
<path d="M5.55664 5.51085C5.55664 5.2182 5.79131 4.98096 6.08078 4.98096H12.685C12.9744 4.98096 13.2091 5.2182 13.2091 5.51085V12.3994C13.2091 12.692 12.9744 12.9293 12.685 12.9293H6.08078C5.79131 12.9293 5.55664 12.692 5.55664 12.3994V5.51085Z" fill="#4967E1" fill-opacity="0.9"/>
<path d="M13.1885 2.43579C11.7878 2.43579 10.6523 3.58372 10.6523 4.99977C10.6523 6.41582 11.7878 7.56376 13.1885 7.56376C14.5892 7.56376 15.7247 6.41583 15.7247 4.99978C15.7247 3.58373 14.5892 2.43579 13.1885 2.43579Z" fill="#F7CE45" fill-opacity="0.7"/>
<path d="M0 0.52989C0 0.23724 0.234667 0 0.524143 0H4.46367C6.20052 0 7.60852 1.42345 7.60852 3.17934V6.7103C7.60852 8.46619 6.20053 9.88965 4.46366 9.88965H0.524144C0.234667 9.88965 0 9.65238 0 9.35977V0.52989Z" fill="#4967E1" fill-opacity="0.58"/>
<mask id="mask0_2910_21383" style="mask-type:luminance" maskUnits="userSpaceOnUse" x="19" y="2" width="58" height="9">
<path d="M77.0005 2.17969H19.0195V10.8204H77.0005V2.17969Z" fill="white"/>
</mask>
<g mask="url(#mask0_2910_21383)">
<path fill-rule="evenodd" clip-rule="evenodd" d="M19.8722 2.17969C19.4013 2.17969 19.0195 2.56654 19.0195 3.04376V9.95633C19.0195 10.4335 19.4013 10.8204 19.8722 10.8204H24.9882C26.4009 10.8204 27.5461 9.65982 27.5461 8.22819V4.7719C27.5461 3.34027 26.4009 2.17969 24.9882 2.17969H19.8722ZM21.1512 3.90783C20.9157 3.90783 20.7249 4.10126 20.7249 4.33987V8.66023C20.7249 8.89882 20.9157 9.09226 21.1512 9.09226H24.5618C25.2682 9.09226 25.8408 8.51201 25.8408 7.79615V5.20394C25.8408 4.48811 25.2682 3.90783 24.5618 3.90783H21.1512Z" fill="white"/>
<path fill-rule="evenodd" clip-rule="evenodd" d="M28.9102 3.90783C28.9102 2.95341 29.6736 2.17969 30.6155 2.17969H32.3208C32.5437 2.17969 32.7566 2.22302 32.9518 2.30184C33.0935 2.35908 33.2534 2.35908 33.3952 2.30184C33.5904 2.22302 33.8033 2.17969 34.0261 2.17969H35.7314C36.6733 2.17969 37.4368 2.95341 37.4368 3.90783V10.2156C37.4368 10.5496 37.1696 10.8204 36.8399 10.8204H36.3283C35.9987 10.8204 35.7314 10.5496 35.7314 10.2156V4.33987C35.7314 4.10126 35.5405 3.90783 35.3052 3.90783H34.4525C34.2171 3.90783 34.0261 4.10126 34.0261 4.33987V10.2156C34.0261 10.5496 33.7589 10.8204 33.4293 10.8204H32.9177C32.5881 10.8204 32.3208 10.5496 32.3208 10.2156V4.33987C32.3208 4.10126 32.1299 3.90783 31.8944 3.90783H31.0418C30.8064 3.90783 30.6155 4.10126 30.6155 4.33987V10.2156C30.6155 10.5496 30.3483 10.8204 30.0186 10.8204H29.5071C29.1774 10.8204 28.9102 10.5496 28.9102 10.2156V3.90783Z" fill="white"/>
<path fill-rule="evenodd" clip-rule="evenodd" d="M50.3967 2.17969C49.4549 2.17969 48.6914 2.95341 48.6914 3.90783V9.09226C48.6914 10.0467 49.4549 10.8204 50.3967 10.8204H55.5128C56.4545 10.8204 57.2181 10.0467 57.2181 9.09226V3.90783C57.2181 2.95341 56.4545 2.17969 55.5128 2.17969H50.3967ZM51.2494 3.90783C50.7785 3.90783 50.3967 4.29469 50.3967 4.7719V8.22819C50.3967 8.70538 50.7785 9.09226 51.2494 9.09226H54.6601C55.131 9.09226 55.5128 8.70538 55.5128 8.22819V4.7719C55.5128 4.29469 55.131 3.90783 54.6601 3.90783H51.2494Z" fill="white"/>
<path fill-rule="evenodd" clip-rule="evenodd" d="M38.8008 3.90783C38.8008 2.95341 39.5642 2.17969 40.5061 2.17969H46.7306C47.0602 2.17969 47.3275 2.45049 47.3275 2.78454V3.30298C47.3275 3.63703 47.0602 3.90783 46.7306 3.90783H41.103C40.7734 3.90783 40.5061 4.17863 40.5061 4.51268V10.2156C40.5061 10.5496 40.2389 10.8204 39.9093 10.8204H39.3977C39.068 10.8204 38.8008 10.5496 38.8008 10.2156V3.90783ZM41.3588 6.41364C41.3588 6.74769 41.626 7.01849 41.9556 7.01849H46.219C46.5486 7.01849 46.8158 6.74769 46.8158 6.41364V5.8952C46.8158 5.56114 46.5486 5.29035 46.219 5.29035H41.9556C41.626 5.29035 41.3588 5.56114 41.3588 5.8952V6.41364Z" fill="white"/>
<path fill-rule="evenodd" clip-rule="evenodd" d="M68.4746 2.78454C68.4746 2.45049 68.7418 2.17969 69.0714 2.17969H69.583C69.9127 2.17969 70.1799 2.45049 70.1799 2.78454V8.48741C70.1799 8.82144 70.4471 9.09226 70.7768 9.09226H74.699C75.0286 9.09226 75.2959 8.82144 75.2959 8.48741V2.78454C75.2959 2.45049 75.5631 2.17969 75.8927 2.17969H76.4043C76.7339 2.17969 77.0011 2.45049 77.0011 2.78454V9.09226C77.0011 10.0467 76.2378 10.8204 75.2959 10.8204H70.1799C69.2381 10.8204 68.4746 10.0467 68.4746 9.09226V2.78454Z" fill="white"/>
<path fill-rule="evenodd" clip-rule="evenodd" d="M59.1809 2.17969C58.8513 2.17969 58.584 2.45049 58.584 2.78454V6.75927V10.2156C58.584 10.5496 58.8513 10.8204 59.1809 10.8204H59.6925C60.0221 10.8204 60.2894 10.5496 60.2894 10.2156V7.79615C60.2894 7.55755 60.4803 7.36412 60.7156 7.36412H62.4019C62.4867 7.36412 62.5631 7.41129 62.6232 7.47212L65.7092 10.5995C65.9423 10.8357 66.3202 10.8357 66.5533 10.5995L66.9151 10.2329C67.1482 9.99666 67.1482 9.61374 66.9151 9.37748L65.2656 7.70596C65.1411 7.57982 65.2292 7.36412 65.4053 7.36412C66.3472 7.36412 67.1107 6.5904 67.1107 5.63597V3.90783C67.1107 2.95341 66.3472 2.17969 65.4053 2.17969H59.6925H59.1809ZM60.6304 3.90783C60.4421 3.90783 60.2894 4.06258 60.2894 4.25346V5.29035C60.2894 5.48123 60.4421 5.63597 60.6304 5.63597H64.8084C65.1381 5.63597 65.4053 5.36518 65.4053 5.03112V4.51268C65.4053 4.17863 65.1381 3.90783 64.8084 3.90783H60.6304Z" fill="white"/>
</g>
</g>
<defs>
<clipPath id="clip0_2910_21383">
<rect width="77" height="13" fill="white"/>
</clipPath>
</defs>
</svg>
