<svg width="1000" height="167" viewBox="0 0 1000 167" fill="none" xmlns="http://www.w3.org/2000/svg">
<path d="M72.1543 70.7934C72.1543 67.034 75.2019 63.9863 78.9613 63.9863H164.73C168.489 63.9863 171.537 67.034 171.537 70.7934V159.285C171.537 163.044 168.489 166.092 164.73 166.092H78.9613C75.2019 166.092 72.1543 163.044 72.1543 159.285V70.7934Z" fill="#4967E1" fill-opacity="0.9"/>
<path d="M171.275 31.29H171.275C153.084 31.29 138.338 46.0365 138.338 64.2273V64.2274C138.338 82.4182 153.084 97.1647 171.275 97.1647H171.275C189.466 97.1647 204.213 82.4182 204.213 64.2274V64.2273C204.213 46.0365 189.466 31.29 171.275 31.29Z" fill="#F7CE45" fill-opacity="0.7"/>
<path d="M0 6.80705C0 3.04762 3.04762 0 6.80705 0H57.9698C80.5263 0 98.8119 18.2858 98.8119 40.8423V86.2016C98.8119 108.758 80.5263 127.044 57.9696 127.044H6.80706C3.04762 127.044 0 123.996 0 120.237V6.80705Z" fill="#4967E1" fill-opacity="0.58"/>
<g clip-path="url(#clip0_2909_9812)">
<path fill-rule="evenodd" clip-rule="evenodd" d="M258.074 28C251.958 28 247 32.9696 247 39.1V127.9C247 134.03 251.958 139 258.074 139H324.515C342.862 139 357.735 124.091 357.735 105.7V61.3C357.735 42.909 342.862 28 324.515 28H258.074ZM274.684 50.2C271.626 50.2 269.147 52.6848 269.147 55.75V111.25C269.147 114.315 271.626 116.8 274.684 116.8H318.978C328.152 116.8 335.588 109.346 335.588 100.15V66.85C335.588 57.6544 328.152 50.2 318.978 50.2H274.684Z" fill="#36373F"/>
<path fill-rule="evenodd" clip-rule="evenodd" d="M375.453 50.2C375.453 37.9393 385.368 28 397.6 28H419.747C422.642 28 425.407 28.5567 427.942 29.5692C429.782 30.3045 431.859 30.3045 433.7 29.5692C436.235 28.5567 439 28 441.894 28H464.041C476.273 28 486.188 37.9393 486.188 50.2V131.23C486.188 135.521 482.718 139 478.437 139H471.793C467.512 139 464.041 135.521 464.041 131.23V55.75C464.041 52.6848 461.562 50.2 458.505 50.2H447.431C444.374 50.2 441.894 52.6848 441.894 55.75V131.23C441.894 135.521 438.424 139 434.143 139H427.499C423.218 139 419.747 135.521 419.747 131.23V55.75C419.747 52.6848 417.268 50.2 414.21 50.2H403.137C400.08 50.2 397.6 52.6848 397.6 55.75V131.23C397.6 135.521 394.13 139 389.849 139H383.205C378.924 139 375.453 135.521 375.453 131.23V50.2Z" fill="#36373F"/>
<path fill-rule="evenodd" clip-rule="evenodd" d="M654.506 28C642.275 28 632.359 37.9393 632.359 50.2V116.8C632.359 129.061 642.275 139 654.506 139H720.948C733.179 139 743.095 129.061 743.095 116.8V50.2C743.095 37.9393 733.179 28 720.948 28H654.506ZM665.58 50.2C659.464 50.2 654.506 55.1697 654.506 61.3V105.7C654.506 111.83 659.464 116.8 665.58 116.8H709.874C715.99 116.8 720.948 111.83 720.948 105.7V61.3C720.948 55.1697 715.99 50.2 709.874 50.2H665.58Z" fill="#36373F"/>
<path fill-rule="evenodd" clip-rule="evenodd" d="M503.906 50.2C503.906 37.9393 513.821 28 526.053 28H606.89C611.171 28 614.642 31.4788 614.642 35.77V42.43C614.642 46.7213 611.171 50.2 606.89 50.2H533.805C529.524 50.2 526.053 53.6787 526.053 57.97V131.23C526.053 135.521 522.583 139 518.302 139H511.658C507.377 139 503.906 135.521 503.906 131.23V50.2ZM537.127 82.39C537.127 86.6813 540.597 90.16 544.878 90.16H600.246C604.527 90.16 607.997 86.6813 607.997 82.39V75.73C607.997 71.4387 604.527 67.96 600.246 67.96H544.878C540.597 67.96 537.127 71.4387 537.127 75.73V82.39Z" fill="#36373F"/>
<path fill-rule="evenodd" clip-rule="evenodd" d="M889.266 35.77C889.266 31.4788 892.736 28 897.017 28H903.661C907.942 28 911.413 31.4788 911.413 35.77V109.03C911.413 113.321 914.883 116.8 919.164 116.8H970.102C974.383 116.8 977.854 113.321 977.854 109.03V35.77C977.854 31.4788 981.324 28 985.605 28H992.249C996.53 28 1000 31.4788 1000 35.77V116.8C1000 129.061 990.086 139 977.854 139H911.413C899.181 139 889.266 129.061 889.266 116.8V35.77Z" fill="#36373F"/>
<path fill-rule="evenodd" clip-rule="evenodd" d="M768.564 28C764.283 28 760.812 31.4788 760.812 35.77V86.83V131.23C760.812 135.521 764.283 139 768.564 139H775.208C779.489 139 782.96 135.521 782.96 131.23V100.15C782.96 97.0848 785.439 94.6 788.496 94.6H810.395C811.497 94.6 812.489 95.2059 813.269 95.9874L853.347 136.162C856.375 139.196 861.283 139.196 864.31 136.162L869.008 131.453C872.035 128.418 872.035 123.499 869.008 120.464L847.586 98.9914C845.969 97.3709 847.114 94.6 849.401 94.6C861.633 94.6 871.548 84.6607 871.548 72.4V50.2C871.548 37.9393 861.633 28 849.401 28H775.208H768.564ZM787.389 50.2C784.943 50.2 782.96 52.1879 782.96 54.64V67.96C782.96 70.4121 784.943 72.4 787.389 72.4H841.649C845.93 72.4 849.401 68.9213 849.401 64.63V57.97C849.401 53.6787 845.93 50.2 841.649 50.2H787.389Z" fill="#36373F"/>
</g>
<defs>
<clipPath id="clip0_2909_9812">
<rect width="753" height="111" fill="white" transform="translate(247 28)"/>
</clipPath>
</defs>
</svg>
