<svg width="41" height="33" viewBox="0 0 41 33" fill="none" xmlns="http://www.w3.org/2000/svg">
<path d="M14.3359 14.0656C14.3359 13.3187 14.9415 12.7131 15.6884 12.7131H32.7294C33.4762 12.7131 34.0818 13.3187 34.0818 14.0656V31.6476C34.0818 32.3944 33.4762 33 32.7294 33H15.6884C14.9415 33 14.3359 32.3944 14.3359 31.6476V14.0656Z" fill="#4967E1" fill-opacity="0.9"/>
<path d="M34.0295 6.2168H34.0295C30.4153 6.2168 27.4854 9.14671 27.4854 12.7609V12.761C27.4854 16.3752 30.4153 19.3051 34.0295 19.3051H34.0295C37.6438 19.3051 40.5737 16.3752 40.5737 12.761V12.7609C40.5737 9.14671 37.6438 6.2168 34.0295 6.2168Z" fill="#F7CE45" fill-opacity="0.7"/>
<path d="M0 1.35246C0 0.605518 0.605518 0 1.35246 0H11.5177C15.9994 0 19.6325 3.63311 19.6325 8.11475V17.127C19.6325 21.6086 15.9994 25.2418 11.5177 25.2418H1.35246C0.605518 25.2418 0 24.6362 0 23.8893V1.35246Z" fill="#4967E1" fill-opacity="0.58"/>
</svg>
